<?xml version="1.0" encoding="iso-8859-1"?>
<!-- Generator: Adobe Illustrator 16.0.0, SVG Export Plug-In . SVG Version: 6.00 Build 0)  -->
<!DOCTYPE svg PUBLIC "-//W3C//DTD SVG 1.1//EN" "http://www.w3.org/Graphics/SVG/1.1/DTD/svg11.dtd">
<svg version="1.1" id="Capa_1" xmlns="http://www.w3.org/2000/svg" xmlns:xlink="http://www.w3.org/1999/xlink" x="0px" y="0px"
	 width="612px" height="612px" viewBox="0 0 612 612" style="enable-background:new 0 0 612 612;" xml:space="preserve">
<g>
	<g id="Cloud_x5F_Fog">
		<g>
			<path d="M405,423H225c-14.904,0-27,12.078-27,27s12.096,27,27,27h180c14.904,0,27-12.078,27-27S419.904,423,405,423z M405,513
				H225c-14.904,0-27,12.078-27,27s12.096,27,27,27h180c14.904,0,27-12.078,27-27S419.904,513,405,513z M405,333H225
				c-14.904,0-27,12.078-27,27s12.096,27,27,27h180c14.904,0,27-12.078,27-27S419.904,333,405,333z M540,252
				c0-73.08-58.086-132.426-130.572-134.766C374.814,73.296,321.282,45,261,45C160.542,45,78.624,123.426,72.576,222.372
				C29.466,244.89,0,289.962,0,342c0,74.574,60.426,135,135,135c14.904,0,27-12.078,27-27s-12.096-27-27-27
				c-44.658,0-81-36.342-81-81c0-30.222,16.704-57.726,43.596-71.766l27.018-14.13l1.854-30.438C130.824,154.638,189.918,99,261,99
				c41.526,0,80.154,18.828,106.02,51.642l15.553,19.746l25.128,0.81c43.901,1.422,78.3,36.9,78.3,80.802v35.982l33.229,13.86
				C542.771,311.67,558,334.494,558,360c0,34.74-28.26,63-63,63c-14.904,0-27,12.078-27,27s12.096,27,27,27
				c64.62,0,117-52.38,117-117C612,311.328,582.282,269.622,540,252z"/>
		</g>
	</g>
</g>
<g>
</g>
<g>
</g>
<g>
</g>
<g>
</g>
<g>
</g>
<g>
</g>
<g>
</g>
<g>
</g>
<g>
</g>
<g>
</g>
<g>
</g>
<g>
</g>
<g>
</g>
<g>
</g>
<g>
</g>
</svg>
