<?xml version="1.0" encoding="iso-8859-1"?>
<!-- Generator: Adobe Illustrator 16.0.0, SVG Export Plug-In . SVG Version: 6.00 Build 0)  -->
<!DOCTYPE svg PUBLIC "-//W3C//DTD SVG 1.1//EN" "http://www.w3.org/Graphics/SVG/1.1/DTD/svg11.dtd">
<svg version="1.1" id="Capa_1" xmlns="http://www.w3.org/2000/svg" xmlns:xlink="http://www.w3.org/1999/xlink" x="0px" y="0px"
	 width="612px" height="612px" viewBox="0 0 612 612" style="enable-background:new 0 0 612 612;" xml:space="preserve">
<g>
	<g id="Stop">
		<g>
			<path d="M306,0C136.992,0,0,137.012,0,306s136.992,306,306,306s306-137.012,306-306S475.008,0,306,0z M57.375,306
				C57.375,168.912,168.912,57.375,306,57.375c58.235,0,111.729,20.272,154.147,53.914L111.289,460.147
				C77.647,417.729,57.375,364.235,57.375,306z M306,554.625c-58.236,0-111.728-20.272-154.147-53.913l348.84-348.84
				c33.66,42.4,53.933,95.912,53.933,154.128C554.625,443.107,443.088,554.625,306,554.625z"/>
		</g>
	</g>
</g>
<g>
</g>
<g>
</g>
<g>
</g>
<g>
</g>
<g>
</g>
<g>
</g>
<g>
</g>
<g>
</g>
<g>
</g>
<g>
</g>
<g>
</g>
<g>
</g>
<g>
</g>
<g>
</g>
<g>
</g>
</svg>
