<?xml version="1.0" encoding="iso-8859-1"?>
<!-- Generator: Adobe Illustrator 16.0.0, SVG Export Plug-In . SVG Version: 6.00 Build 0)  -->
<!DOCTYPE svg PUBLIC "-//W3C//DTD SVG 1.1//EN" "http://www.w3.org/Graphics/SVG/1.1/DTD/svg11.dtd">
<svg version="1.1" id="Capa_1" xmlns="http://www.w3.org/2000/svg" xmlns:xlink="http://www.w3.org/1999/xlink" x="0px" y="0px"
	 width="612px" height="612px" viewBox="0 0 612 612" style="enable-background:new 0 0 612 612;" xml:space="preserve">
<g>
	<g id="Cloud_x5F_Rain">
		<g>
			<path d="M315,396c-14.904,0-27,12.078-27,27v126c0,14.922,12.096,27,27,27c14.904,0,27-12.078,27-27V423
				C342,408.078,329.904,396,315,396z M225,342c-14.904,0-27,12.078-27,27v126c0,14.922,12.096,27,27,27s27-12.078,27-27V369
				C252,354.078,239.904,342,225,342z M405,342c-14.904,0-27,12.078-27,27v126c0,14.922,12.096,27,27,27s27-12.078,27-27V369
				C432,354.078,419.904,342,405,342z M540,243c0-73.08-58.086-132.426-130.572-134.766C374.814,64.296,321.282,36,261,36
				C160.542,36,78.624,114.426,72.576,213.372C29.466,235.908,0,280.962,0,333c0,74.574,60.426,135,135,135
				c14.904,0,27-12.078,27-27s-12.096-27-27-27c-44.658,0-81-36.342-81-81c0-30.222,16.704-57.726,43.596-71.766l27.018-14.13
				l1.872-30.438C130.824,145.638,189.918,90,261,90c41.526,0,80.154,18.828,106.02,51.642l15.553,19.746l25.128,0.81
				C451.602,163.62,486,199.116,486,243v35.982l33.229,13.86C542.771,302.67,558,325.494,558,351c0,34.74-28.26,63-63,63
				c-14.904,0-27,12.078-27,27s12.096,27,27,27c64.62,0,117-52.38,117-117C612,302.328,582.282,260.64,540,243z"/>
		</g>
	</g>
</g>
<g>
</g>
<g>
</g>
<g>
</g>
<g>
</g>
<g>
</g>
<g>
</g>
<g>
</g>
<g>
</g>
<g>
</g>
<g>
</g>
<g>
</g>
<g>
</g>
<g>
</g>
<g>
</g>
<g>
</g>
</svg>
