<?xml version="1.0" encoding="iso-8859-1"?>
<!-- Generator: Adobe Illustrator 16.0.0, SVG Export Plug-In . SVG Version: 6.00 Build 0)  -->
<!DOCTYPE svg PUBLIC "-//W3C//DTD SVG 1.1//EN" "http://www.w3.org/Graphics/SVG/1.1/DTD/svg11.dtd">
<svg version="1.1" id="Capa_1" xmlns="http://www.w3.org/2000/svg" xmlns:xlink="http://www.w3.org/1999/xlink" x="0px" y="0px"
	 width="792px" height="792px" viewBox="0 0 792 792" style="enable-background:new 0 0 792 792;" xml:space="preserve">
<g>
	<g id="Thermometer_x5F_3">
		<g>
			<path d="M420.75,403.376V111.375C420.75,49.97,370.78,0,309.375,0S198,49.97,198,111.375v292.001
				c-60.811,38.164-99,105.731-99,178.249C99,697.628,193.372,792,309.375,792c116.003,0,210.375-94.372,210.375-210.375
				C519.75,509.107,481.561,441.54,420.75,403.376z M309.375,717.75c-75.067,0-136.125-61.083-136.125-136.125
				c0-52.099,30.542-100.337,77.839-122.834c12.944-6.163,21.161-19.206,21.161-33.512v-91.154
				c0-20.468,16.657-37.125,37.125-37.125s37.125,16.657,37.125,37.125v91.154c0,14.306,8.242,27.373,21.161,33.512
				c47.298,22.497,77.839,70.735,77.839,122.834C445.5,656.667,384.442,717.75,309.375,717.75z M495,321.75h198V247.5H495V321.75z
				 M495,99v74.25h198V99H495z"/>
		</g>
	</g>
</g>
<g>
</g>
<g>
</g>
<g>
</g>
<g>
</g>
<g>
</g>
<g>
</g>
<g>
</g>
<g>
</g>
<g>
</g>
<g>
</g>
<g>
</g>
<g>
</g>
<g>
</g>
<g>
</g>
<g>
</g>
</svg>
