<?xml version="1.0" encoding="iso-8859-1"?>
<!-- Generator: Adobe Illustrator 16.0.0, SVG Export Plug-In . SVG Version: 6.00 Build 0)  -->
<!DOCTYPE svg PUBLIC "-//W3C//DTD SVG 1.1//EN" "http://www.w3.org/Graphics/SVG/1.1/DTD/svg11.dtd">
<svg version="1.1" id="Capa_1" xmlns="http://www.w3.org/2000/svg" xmlns:xlink="http://www.w3.org/1999/xlink" x="0px" y="0px"
	 width="612px" height="612px" viewBox="0 0 612 612" style="enable-background:new 0 0 612 612;" xml:space="preserve">
<g>
	<g id="Cloud_x5F_Lightning">
		<g>
			<path d="M369,432h-45v-81c0-4.968-4.032-9-9-9c-3.366,0-6.282,1.836-7.83,4.536l-72,126C234.414,473.85,234,475.38,234,477
				c0,4.968,4.032,9,9,9h45v81c0,4.968,4.032,9,9,9c3.366,0,6.282-1.836,7.83-4.536l72-126c0.756-1.313,1.17-2.844,1.17-4.464
				C378,436.032,373.968,432,369,432z M540,243c0-73.08-58.086-132.426-130.572-134.766C374.814,64.296,321.282,36,261,36
				C160.542,36,78.624,114.426,72.576,213.372C29.466,235.908,0,280.962,0,333c0,74.574,60.426,135,135,135h36
				c14.904,0,27-12.096,27-27s-12.096-27-27-27h-36c-44.658,0-81-36.324-81-81c0-30.222,16.704-57.726,43.596-71.766l27.018-14.13
				l1.872-30.438C130.824,145.638,189.918,90,261,90c41.526,0,80.154,18.828,106.02,51.642l15.553,19.746l25.128,0.81
				C451.602,163.62,486,199.116,486,243v35.982l33.229,13.86C542.771,302.67,558,325.494,558,351c0,34.74-28.26,63-63,63h-54
				c-14.904,0-27,12.096-27,27s12.096,27,27,27h54c64.62,0,117-52.38,117-117C612,302.328,582.282,260.64,540,243z"/>
		</g>
	</g>
</g>
<g>
</g>
<g>
</g>
<g>
</g>
<g>
</g>
<g>
</g>
<g>
</g>
<g>
</g>
<g>
</g>
<g>
</g>
<g>
</g>
<g>
</g>
<g>
</g>
<g>
</g>
<g>
</g>
<g>
</g>
</svg>
